<svg width="14" height="12" viewBox="0 0 14 12" fill="none" xmlns="http://www.w3.org/2000/svg">
<path d="M7.25 12C7.112 12 6.97398 11.9618 6.85248 11.886C6.59298 11.724 0.5 7.86825 0.5 3.75C0.5 1.68225 2.18225 0 4.25 0C5.4455 0 6.55325 0.627717 7.25 1.55997C7.94675 0.627717 9.0545 0 10.25 0C12.3177 0 14 1.68225 14 3.75C14 7.86825 7.90702 11.724 7.64752 11.886C7.52602 11.9618 7.388 12 7.25 12ZM4.25 1.5C3.0095 1.5 2 2.5095 2 3.75C2 6.27225 5.48225 9.15527 7.25 10.3545C9.01775 9.15527 12.5 6.273 12.5 3.75C12.5 2.5095 11.4905 1.5 10.25 1.5C8.98325 1.5 8 2.70975 8 3.75C8 4.164 7.664 4.5 7.25 4.5C6.836 4.5 6.5 4.164 6.5 3.75C6.5 2.70975 5.51675 1.5 4.25 1.5Z" fill="#D9D9D9"/>
</svg>
